<svg width="596" height="264" viewBox="0 0 596 264" fill="none" xmlns="http://www.w3.org/2000/svg">
<path d="M268.946 67.0353C271.145 67.0353 273.428 67.5004 275.795 68.4305C278.163 69.3607 280.446 70.5867 282.644 72.1088H282.518C284.716 73.6308 286.407 75.7025 287.591 78.3238C288.775 80.9451 289.367 83.947 289.367 87.3293V104.706C289.367 111.555 287.084 116.671 282.518 120.053C280.319 121.66 278.036 122.928 275.668 123.858C273.385 124.704 271.145 125.127 268.946 125.127H241.295C239.097 125.127 236.814 124.704 234.446 123.858C232.163 122.928 229.922 121.66 227.724 120.053C223.158 116.671 220.875 111.555 220.875 104.706V96.3347C220.875 92.3605 223.369 90.3734 228.358 90.3734C233.432 90.3734 235.968 92.3605 235.968 96.3347V103.691C235.968 105.89 236.602 107.877 237.871 109.653C239.139 111.428 241.338 112.316 244.466 112.316H265.775C268.904 112.316 271.102 111.428 272.371 109.653C273.639 107.877 274.273 105.89 274.273 103.691V88.344C274.273 86.23 273.639 84.2852 272.371 82.5095C271.102 80.6492 268.904 79.719 265.775 79.719H241.295C236.898 79.719 232.375 78.1124 227.724 74.8992C223.158 71.3478 220.875 66.232 220.875 59.5519V44.4582C220.875 41.0759 221.467 38.1164 222.65 35.5796C223.834 32.9583 225.525 30.8444 227.724 29.2377H227.597C229.796 27.8003 232.079 26.6164 234.446 25.6863C236.814 24.7562 239.097 24.2911 241.295 24.2911H268.946C271.145 24.2911 273.428 24.7562 275.795 25.6863C278.163 26.6164 280.446 27.8003 282.644 29.2377H282.518C284.716 30.8444 286.407 32.9583 287.591 35.5796C288.775 38.1164 289.367 41.0759 289.367 44.4582V51.9416C289.367 55.9159 286.83 57.903 281.757 57.903C276.768 57.903 274.273 55.9159 274.273 51.9416V45.5998C274.273 43.4858 273.639 41.541 272.371 39.7653C271.102 37.9895 268.904 37.1017 265.775 37.1017H244.466C241.338 37.1017 239.139 37.9895 237.871 39.7653C236.602 41.541 235.968 43.4858 235.968 45.5998V58.5372C235.968 60.7357 236.602 62.7228 237.871 64.4986C239.139 66.1897 241.338 67.0353 244.466 67.0353H268.946ZM352.692 119.927C352.692 123.985 350.198 126.015 345.209 126.015C340.22 126.015 337.726 123.985 337.726 119.927V86.1877L309.314 32.155C308.807 31.0558 308.553 29.9142 308.553 28.7304C308.553 26.2782 309.99 24.4602 312.865 23.2764H312.739C314.599 22.5999 316.079 22.2617 317.178 22.2617C319.376 22.2617 321.068 23.3609 322.251 25.5595L345.336 68.9379C347.027 65.7246 348.845 62.3 350.79 58.664C352.735 54.9435 354.68 51.1806 356.624 47.3755C358.654 43.5704 360.641 39.8075 362.586 36.087C364.531 32.3664 366.391 28.8572 368.167 25.5595C368.843 24.5448 369.562 23.7415 370.323 23.1496C371.168 22.5576 372.183 22.2617 373.367 22.2617C374.551 22.2617 375.946 22.5999 377.553 23.2764H377.426C380.385 24.5448 381.865 26.405 381.865 28.8572C381.865 29.3646 381.823 29.9142 381.738 30.5061C381.654 31.0135 381.442 31.5631 381.104 32.155C380.343 33.6771 379.371 35.5373 378.187 37.7359C377.087 39.9344 375.481 43.0207 373.367 46.995C371.338 50.8847 368.674 56.0004 365.376 62.3423C362.078 68.5996 357.85 76.6749 352.692 86.5683V119.927Z" fill="white"/>
<path d="M68.5625 240.026C70.1268 240.026 71.2261 239.582 71.8602 238.694C72.4944 237.806 72.8115 236.813 72.8115 235.713V206.668C72.8115 205.611 72.4944 204.638 71.8602 203.75C71.2261 202.862 70.1268 202.419 68.5625 202.419H53.7225L53.6591 243.768C53.6591 244.698 53.2997 245.438 52.581 245.987C51.8622 246.537 50.9744 246.812 49.9174 246.812C47.4229 246.812 46.1757 245.797 46.1757 243.768V199.818C46.1757 198.296 46.5562 197.282 47.3172 196.774C48.1205 196.267 49.0718 196.013 50.171 196.013H70.1479C71.2472 196.013 72.3887 196.246 73.5726 196.711C74.7564 197.176 75.8979 197.768 76.9972 198.487H76.9337C78.033 199.29 78.8786 200.347 79.4705 201.657C80.0624 202.926 80.3584 204.406 80.3584 206.097V236.221C80.3584 239.645 79.2168 242.203 76.9337 243.894C75.8345 244.698 74.6929 245.332 73.5091 245.797C72.3676 246.22 71.2472 246.431 70.1479 246.431H59.4936C58.7749 246.431 58.2041 246.135 57.7813 245.543C57.4008 244.951 57.2105 244.169 57.2105 243.197C57.2105 241.083 58.1195 240.026 59.9375 240.026H68.5625ZM130.106 202.228L116.217 244.846V244.782C115.963 245.416 115.604 245.945 115.139 246.368C114.716 246.748 114.188 246.938 113.554 246.938C113.215 246.938 112.877 246.896 112.539 246.812C112.243 246.769 111.926 246.706 111.588 246.621H111.651C109.241 245.86 108.353 244.507 108.987 242.563L123.447 198.613C123.658 197.937 124.018 197.366 124.525 196.901C125.075 196.436 125.709 196.161 126.428 196.077C127.146 195.95 127.844 195.865 128.52 195.823C129.197 195.738 129.725 195.696 130.106 195.696C130.486 195.696 131.015 195.738 131.691 195.823C132.368 195.865 133.065 195.929 133.784 196.013C134.376 196.098 134.947 196.415 135.496 196.965C136.088 197.514 136.532 198.064 136.828 198.613C139.196 205.885 141.585 213.221 143.995 220.62C146.447 227.976 148.857 235.291 151.224 242.563C151.816 244.507 150.928 245.86 148.561 246.621C148.222 246.706 147.905 246.769 147.609 246.812C147.356 246.896 147.06 246.938 146.722 246.938C146.13 246.938 145.58 246.748 145.073 246.368C144.608 245.945 144.269 245.416 144.058 244.782V244.846L130.106 202.228ZM134.862 231.147C134.862 232.5 134.376 233.663 133.404 234.635C132.473 235.565 131.332 236.03 129.979 236.03C128.626 236.03 127.485 235.565 126.554 234.635C125.624 233.663 125.159 232.5 125.159 231.147C125.159 229.794 125.624 228.653 126.554 227.723C127.485 226.75 128.626 226.264 129.979 226.264C131.332 226.264 132.473 226.75 133.404 227.723C134.376 228.653 134.862 229.794 134.862 231.147ZM198.316 225.503H193.432C192.714 225.503 192.143 225.228 191.72 224.678C191.34 224.087 191.149 223.304 191.149 222.332C191.149 220.176 192.037 219.098 193.813 219.098H201.233C202.797 219.098 203.896 218.654 204.531 217.766C205.165 216.878 205.482 215.906 205.482 214.849V206.668C205.482 205.611 205.165 204.638 204.531 203.75C203.896 202.862 202.797 202.419 201.233 202.419H187.852V243.768C187.852 245.797 186.604 246.812 184.11 246.812C181.615 246.812 180.368 245.797 180.368 243.768V199.818C180.368 198.296 180.749 197.282 181.51 196.774C182.313 196.267 183.264 196.013 184.364 196.013H202.818C203.918 196.013 205.059 196.246 206.243 196.711C207.427 197.176 208.568 197.768 209.668 198.487H209.604C210.703 199.29 211.549 200.347 212.141 201.657C212.733 202.926 213.029 204.406 213.029 206.097V215.356C213.029 218.781 211.887 221.338 209.604 223.03C209.139 223.368 208.632 223.685 208.082 223.981C207.575 224.277 207.046 224.573 206.497 224.869L216.644 241.611C216.77 241.823 216.897 242.097 217.024 242.436C217.151 242.774 217.214 243.049 217.214 243.26C217.214 244.275 216.496 245.247 215.058 246.177V246.114C214.086 246.706 213.261 247.002 212.585 247.002C211.612 247.002 210.83 246.516 210.238 245.543L210.302 245.607L198.316 225.503ZM263.499 243.831C263.499 245.86 262.231 246.875 259.694 246.875C257.2 246.875 255.952 245.86 255.952 243.831V202.419H244.854C243.332 202.419 242.529 201.34 242.444 199.184C242.444 197.07 243.247 196.013 244.854 196.013H274.597C276.204 196.013 276.965 197.07 276.881 199.184C276.881 201.34 276.12 202.419 274.597 202.419H263.499V243.831Z" fill="white"/>
<path d="M354.649 243.831C354.649 245.86 353.38 246.875 350.844 246.875C348.349 246.875 347.102 245.86 347.102 243.831V202.419H336.004C334.481 202.419 333.678 201.34 333.594 199.184C333.594 197.07 334.397 196.013 336.004 196.013H365.747C367.354 196.013 368.115 197.07 368.03 199.184C368.03 201.34 367.269 202.419 365.747 202.419H354.649V243.831Z" fill="white"/>
<rect x="390.205" y="199.097" width="32.7068" height="7.21474" rx="1.68344" fill="white"/>
<rect x="390.205" y="220.261" width="32.7068" height="7.21474" rx="1.68344" fill="white"/>
<rect x="390.205" y="241.423" width="32.7068" height="7.21474" rx="1.68344" fill="white"/>
<path d="M483.73 236.221C483.73 239.645 482.589 242.203 480.305 243.894C479.206 244.698 478.065 245.332 476.881 245.797C475.739 246.22 474.619 246.431 473.52 246.431H459.694C458.595 246.431 457.454 246.22 456.27 245.797C455.128 245.332 454.008 244.698 452.909 243.894C451.809 243.049 450.964 242.013 450.372 240.787C449.78 239.518 449.484 237.996 449.484 236.221V206.097C449.484 204.406 449.78 202.926 450.372 201.657C450.964 200.347 451.809 199.29 452.909 198.487H452.845C453.944 197.768 455.086 197.176 456.27 196.711C457.454 196.246 458.595 196.013 459.694 196.013H473.52C474.619 196.013 475.76 196.246 476.944 196.711C478.128 197.176 479.27 197.768 480.369 198.487H480.305C481.405 199.29 482.25 200.347 482.842 201.657C483.434 202.926 483.73 204.406 483.73 206.097V210.473C483.73 212.502 482.462 213.517 479.925 213.517C477.43 213.517 476.183 212.502 476.183 210.473V206.668C476.183 205.611 475.866 204.638 475.232 203.75C474.598 202.862 473.499 202.419 471.934 202.419H461.28C459.716 202.419 458.616 202.862 457.982 203.75C457.348 204.638 457.031 205.611 457.031 206.668V235.713C457.031 236.813 457.348 237.806 457.982 238.694C458.616 239.582 459.716 240.026 461.28 240.026H471.934C473.499 240.026 474.598 239.582 475.232 238.694C475.866 237.806 476.183 236.813 476.183 235.713V232.035C476.183 230.048 477.43 229.054 479.925 229.054C482.462 229.054 483.73 230.048 483.73 232.035V236.221Z" fill="white"/>
<path d="M541.936 198.74C541.936 196.711 543.183 195.696 545.678 195.696C548.214 195.696 549.483 196.711 549.483 198.74V243.704C549.483 245.733 548.214 246.748 545.678 246.748C543.183 246.748 541.936 245.733 541.936 243.704V198.74ZM522.657 243.704C522.657 245.733 521.388 246.748 518.851 246.748C516.357 246.748 515.11 245.733 515.11 243.704V198.74C515.11 196.711 516.357 195.696 518.851 195.696C521.388 195.696 522.657 196.711 522.657 198.74V243.704ZM537.497 220.176C537.497 221.656 536.989 222.903 535.975 223.917C534.96 224.932 533.713 225.44 532.233 225.44C530.795 225.44 529.569 224.932 528.555 223.917C527.54 222.903 527.032 221.656 527.032 220.176C527.032 218.696 527.54 217.449 528.555 216.434C529.569 215.419 530.795 214.912 532.233 214.912C533.713 214.912 534.96 215.419 535.975 216.434C536.989 217.449 537.497 218.696 537.497 220.176Z" fill="white"/>
</svg>
