<svg width="44" height="42" viewBox="0 0 44 42" fill="none" xmlns="http://www.w3.org/2000/svg">
<g clip-path="url(#clip0_78_161)">
<path fill-rule="evenodd" clip-rule="evenodd" d="M3.62055 11.1655C3.09878 10.9742 2.55658 10.8237 1.99781 10.7178C1.95679 10.7101 1.91567 10.7025 1.87447 10.6952C1.50115 10.6292 1.50115 10.0981 1.87447 10.0321C1.91567 10.0248 1.95679 10.0172 1.99781 10.0095C2.55658 9.90361 3.09878 9.75312 3.62055 9.56183C3.9328 9.44734 4.23774 9.31828 4.53452 9.17537C6.58979 8.18597 8.25425 6.53526 9.25195 4.49698C9.396 4.20265 9.52618 3.90024 9.64157 3.59056C9.83446 3.07311 9.9862 2.53538 10.093 1.98123C10.1008 1.94055 10.1084 1.89977 10.1157 1.85891C10.1823 1.48868 10.7178 1.48868 10.7844 1.85891C10.7918 1.89977 10.7994 1.94055 10.8072 1.98123C10.9139 2.53538 11.0657 3.07311 11.2586 3.59056C11.374 3.90023 11.5041 4.20265 11.6482 4.49698C12.6459 6.53526 14.3104 8.18597 16.3657 9.17537C16.6624 9.31828 16.9674 9.44734 17.2796 9.56183C17.8014 9.75312 18.3436 9.90361 18.9024 10.0095C18.9434 10.0172 18.9845 10.0248 19.0257 10.0321C19.399 10.0981 19.399 10.6292 19.0257 10.6952C18.9845 10.7025 18.9434 10.7101 18.9024 10.7178C18.3436 10.8237 17.8014 10.9742 17.2796 11.1655C16.9674 11.28 16.6624 11.409 16.3657 11.5519C14.3104 12.5413 12.6459 14.192 11.6482 16.2303C11.5041 16.5247 11.374 16.8271 11.2586 17.1367C11.0657 17.6542 10.9139 18.1919 10.8072 18.7461C10.7994 18.7867 10.7918 18.8275 10.7844 18.8684C10.7178 19.2386 10.1823 19.2386 10.1157 18.8684C10.1084 18.8275 10.1008 18.7867 10.093 18.7461C9.9862 18.1919 9.83446 17.6542 9.64157 17.1367C9.52618 16.8271 9.396 16.5247 9.25195 16.2303C8.25425 14.192 6.58979 12.5413 4.53452 11.5519C4.23774 11.409 3.93281 11.28 3.62055 11.1655ZM16.0949 24.3212C15.73 24.2237 15.36 24.1381 14.9853 24.0649C14.9267 24.0535 14.8681 24.0424 14.8094 24.0315L14.7916 24.0283L14.7675 24.0239C14.7304 24.0172 14.6897 24.01 14.6083 23.9955L14.5799 23.9905C13.9828 23.8785 13.9828 23.0306 14.5799 22.9186L14.6083 22.9136C14.6897 22.8991 14.7304 22.8919 14.7675 22.8852L14.7916 22.8808L14.8094 22.8776C14.8681 22.8667 14.9267 22.8556 14.9853 22.8442C15.3599 22.771 15.73 22.6854 16.0949 22.5879C16.4066 22.5046 16.7146 22.4125 17.0186 22.312C21.9376 20.6859 25.8083 16.8471 27.448 11.9688C27.5494 11.6673 27.6422 11.3618 27.7262 11.0527C27.8245 10.6908 27.9108 10.3238 27.9846 9.95226C27.9961 9.89423 28.0073 9.83608 28.0183 9.77783L28.0216 9.76016L28.026 9.73627C28.0327 9.69994 28.0399 9.66006 28.0541 9.58114L28.0546 9.57841L28.0596 9.55021C28.1726 8.95812 29.0275 8.95812 29.1405 9.55021L29.1456 9.57841C29.1601 9.65914 29.1674 9.6995 29.1742 9.73627L29.1786 9.76016L29.1819 9.77783C29.1928 9.83608 29.204 9.89423 29.2155 9.95226C29.2893 10.3239 29.3756 10.6908 29.474 11.0527C29.558 11.3618 29.6508 11.6673 29.7521 11.9688C31.3918 16.8471 35.2626 20.6859 40.1815 22.312C40.4856 22.4125 40.7936 22.5046 41.1053 22.5879C41.4702 22.6854 41.8402 22.771 42.2149 22.8442C42.2734 22.8556 42.332 22.8667 42.3908 22.8776L42.4086 22.8808L42.4327 22.8852C42.4698 22.8919 42.5105 22.8991 42.5919 22.9136L42.6203 22.9186C43.2173 23.0306 43.2173 23.8785 42.6203 23.9905L42.5919 23.9955L42.5057 24.0108L42.4327 24.0239L42.4086 24.0283L42.3908 24.0315C42.332 24.0424 42.2734 24.0535 42.2149 24.0649C41.8402 24.1381 41.4702 24.2237 41.1053 24.3212C40.7936 24.4045 40.4856 24.4966 40.1815 24.5971C35.2626 26.2232 31.3918 30.062 29.7521 34.9403C29.6508 35.2418 29.558 35.5473 29.474 35.8564C29.3756 36.2183 29.2893 36.5853 29.2155 36.9568C29.204 37.0149 29.1928 37.073 29.1819 37.1313L29.1786 37.149L29.1742 37.1728L29.1643 37.2266L29.1462 37.3276L29.1405 37.3589C29.0275 37.951 28.1726 37.951 28.0596 37.3589L28.0546 37.3307C28.0401 37.2501 28.0327 37.2096 28.026 37.1728L28.0216 37.149L28.0183 37.1313C28.0073 37.073 27.9961 37.0149 27.9846 36.9568C27.9108 36.5852 27.8245 36.2183 27.7262 35.8564C27.6422 35.5473 27.5494 35.2418 27.448 34.9403C25.8083 30.062 21.9376 26.2232 17.0186 24.5971C16.7146 24.4966 16.4066 24.4045 16.0949 24.3212ZM7.86183 35.6782C8.48932 35.7971 9.08371 36.0051 9.63129 36.2886C9.87488 36.4147 10.1092 36.5557 10.333 36.7105C10.9566 37.1417 11.4989 37.6795 11.9337 38.298C12.0897 38.52 12.232 38.7523 12.3591 38.9938C12.645 39.5369 12.8547 40.1264 12.9745 40.7487C12.9795 40.7744 12.9843 40.8002 12.9889 40.826C13.031 41.0598 13.3692 41.0598 13.4113 40.826C13.4159 40.8002 13.4207 40.7744 13.4256 40.7487C13.5455 40.1264 13.7552 39.5369 14.0411 38.9938C14.1682 38.7523 14.3105 38.52 14.4665 38.298C14.9013 37.6795 15.4436 37.1417 16.0672 36.7105C16.291 36.5557 16.5253 36.4147 16.7689 36.2886C17.3165 36.0051 17.9109 35.7971 18.5384 35.6782C18.5643 35.6733 18.5902 35.6686 18.6163 35.664C18.852 35.6223 18.852 35.2868 18.6163 35.2452C18.5902 35.2405 18.5643 35.2358 18.5384 35.2309C17.9109 35.112 17.3165 34.904 16.7689 34.6205C16.5253 34.4944 16.291 34.3534 16.0672 34.1986C15.4436 33.7674 14.9013 33.2296 14.4665 32.6112C14.3105 32.3892 14.1682 32.1568 14.0411 31.9153C13.7552 31.3722 13.5455 30.7827 13.4256 30.1604C13.4207 30.1347 13.4159 30.1089 13.4113 30.0831C13.3692 29.8493 13.031 29.8493 12.9889 30.0831C12.9843 30.1089 12.9795 30.1347 12.9745 30.1604C12.8547 30.7827 12.645 31.3722 12.3591 31.9153C12.232 32.1568 12.0897 32.3892 11.9337 32.6112C11.4989 33.2296 10.9566 33.7674 10.333 34.1986C10.1092 34.3534 9.87488 34.4944 9.63129 34.6205C9.08371 34.904 8.48932 35.112 7.86183 35.2309C7.83592 35.2358 7.80996 35.2405 7.78389 35.2452C7.54816 35.2868 7.54816 35.6223 7.78389 35.664C7.80996 35.6686 7.83592 35.6733 7.86183 35.6782Z" fill="url(#paint0_linear_78_161)"/>
</g>
<defs>
<linearGradient id="paint0_linear_78_161" x1="6.60007" y1="3.23077" x2="33.3406" y2="40.9234" gradientUnits="userSpaceOnUse">
<stop stop-color="#9E00F4"/>
<stop offset="1" stop-color="#4D4DFF"/>
</linearGradient>
<clipPath id="clip0_78_161">
<rect width="44" height="42" fill="white"/>
</clipPath>
</defs>
</svg>
