<svg width="24" height="36" viewBox="0 0 24 36" fill="none" xmlns="http://www.w3.org/2000/svg">
<path d="M0 30C0 26.6863 2.68632 24 6 24H12V30C12 33.3137 9.31368 36 6 36C2.68632 36 0 33.3137 0 30Z" fill="#24CB71"/>
<path d="M12 0V12H18C21.3137 12 24 9.31368 24 6C24 2.68632 21.3137 0 18 0H12Z" fill="#FF7237"/>
<path d="M17.9501 24C21.2638 24 23.9501 21.3137 23.9501 18C23.9501 14.6863 21.2638 12 17.9501 12C14.6364 12 11.9501 14.6863 11.9501 18C11.9501 21.3137 14.6364 24 17.9501 24Z" fill="#00B6FF"/>
<path d="M0 6C0 9.31368 2.68632 12 6 12H12V0H6C2.68632 0 0 2.68632 0 6Z" fill="#FF3737"/>
<path d="M0 18C0 21.3137 2.68632 24 6 24H12V12H6C2.68632 12 0 14.6863 0 18Z" fill="#874FFF"/>
</svg>
