<svg width="36" height="36" viewBox="0 0 36 36" fill="none" xmlns="http://www.w3.org/2000/svg">
<g clip-path="url(#clip0_78_30)">
<path fill-rule="evenodd" clip-rule="evenodd" d="M33.2919 12.564C34.3216 12.564 35.2638 13.1421 35.7294 14.0593C36.1966 14.9765 36.1091 16.0781 35.5029 16.9109C34.8982 17.7421 33.8763 18.164 32.8591 18.0015C31.8435 17.839 31.0044 17.1203 30.6872 16.1406L27.0404 16.8C27.0091 16.5515 26.9638 16.3046 26.9122 16.0593L30.5591 15.4C30.5326 14.6578 30.8076 13.9359 31.3232 13.4015C31.8388 12.8672 32.5497 12.564 33.2919 12.564ZM17.9999 9.62808C20.2202 9.62808 22.3499 10.5093 23.9203 12.0796C25.4907 13.65 26.3719 15.7796 26.3719 18C26.3719 20.2204 25.4906 22.35 23.9203 23.9204C22.35 25.4908 20.2203 26.372 17.9999 26.372C15.7795 26.372 13.6499 25.4908 12.0795 23.9204C10.5091 22.3501 9.62797 20.2204 9.62797 18C9.62797 15.7796 10.5092 13.65 12.0795 12.0796C13.6498 10.5092 15.7795 9.62808 17.9999 9.62808ZM17.9999 21.0201C17.7859 21.0201 17.5937 21.1482 17.5124 21.3451C17.4296 21.5435 17.4749 21.7701 17.6265 21.9216C17.778 22.0716 18.0046 22.1169 18.2015 22.0357C18.3999 21.9545 18.528 21.7607 18.528 21.5482C18.528 21.4076 18.4718 21.2732 18.3733 21.1747C18.2749 21.0747 18.1405 21.0201 17.9999 21.0201ZM16.3999 20.0685C17.3218 19.306 18.6546 19.306 19.5765 20.0685C19.7343 20.1998 19.9687 20.1779 20.0999 20.0201C20.2312 19.8623 20.2093 19.6279 20.0515 19.4951C18.8593 18.4904 17.1156 18.4904 15.9235 19.4951C15.7657 19.6279 15.7454 19.8623 15.8766 20.0201C16.0079 20.1779 16.2421 20.1998 16.3999 20.0685ZM14.8484 18.2044C16.6671 16.6888 19.3092 16.6888 21.128 18.2044C21.203 18.2763 21.3045 18.3154 21.4092 18.3091C21.5139 18.3044 21.6123 18.256 21.6795 18.1747C21.7452 18.0951 21.7764 17.9904 21.7623 17.8857C21.7498 17.7826 21.6936 17.6888 21.6077 17.6279C19.5092 15.8841 16.4657 15.8841 14.3685 17.6279C14.2263 17.7654 14.2153 17.9872 14.3403 18.1372C14.4669 18.2888 14.6874 18.3169 14.8484 18.2044ZM13.2921 16.3404C14.6109 15.2419 16.2718 14.6404 17.9873 14.6404C19.7045 14.6404 21.3654 15.2419 22.6841 16.3404C22.8435 16.4716 23.0779 16.4482 23.2091 16.2904C23.3419 16.131 23.3185 15.895 23.1591 15.7638C21.7076 14.5544 19.8779 13.8919 17.9871 13.8919C16.098 13.8919 14.2684 14.5544 12.8151 15.7638C12.6557 15.895 12.6339 16.131 12.7651 16.2904C12.8964 16.4482 13.1323 16.4716 13.2917 16.3404H13.2921ZM22.6641 25.8404C22.4485 25.9685 22.2282 26.0888 22.0048 26.1966L24.6485 31.0886V31.087C23.5673 31.8839 23.2266 33.3464 23.8438 34.5386C24.4626 35.7292 25.8548 36.2948 27.1266 35.8714C28.4001 35.448 29.1766 34.162 28.9579 32.8386C28.7391 31.5152 27.5891 30.5464 26.2485 30.5558C25.9204 30.5574 25.5954 30.6152 25.2876 30.7277L22.6641 25.8404ZM10.9517 23.7872C10.7923 23.5997 10.6408 23.4029 10.5002 23.1997L4.64377 27.5997C3.62501 26.5763 1.98753 26.5154 0.895326 27.4607C-0.195314 28.4075 -0.368755 30.0372 0.501574 31.1919C1.37033 32.345 2.98437 32.6294 4.19533 31.8403C5.40625 31.0528 5.80001 29.4622 5.09533 28.1997L10.9517 23.7997L10.9517 23.7872ZM10.8236 12.3716C10.9752 12.1763 11.1392 11.9716 11.308 11.8029L5.01276 6.43568C5.7862 5.22632 5.49088 3.6232 4.3362 2.76848C3.18152 1.9138 1.56276 2.09972 0.631522 3.19192C-0.301278 4.28568 -0.226278 5.9138 0.800274 6.91692C1.82683 7.9216 3.45651 7.95912 4.52839 7.00442L10.8236 12.3716ZM20.5156 9.231L21.8672 5.1622L21.8687 5.16376C20.5718 4.53252 19.9875 3.00752 20.5281 1.67156C21.0687 0.33564 22.5515 -0.35188 23.9203 0.09656C25.289 0.545 26.0781 1.9778 25.7234 3.37468C25.3687 4.77 23.9937 5.65436 22.5765 5.395L21.2281 9.4686C20.9921 9.37954 20.7562 9.29975 20.5156 9.231Z" fill="url(#paint0_linear_78_30)"/>
</g>
<defs>
<linearGradient id="paint0_linear_78_30" x1="2" y1="1.5" x2="28.5" y2="37" gradientUnits="userSpaceOnUse">
<stop stop-color="#03AFFF"/>
<stop offset="1" stop-color="#01FF67"/>
</linearGradient>
<clipPath id="clip0_78_30">
<rect width="36" height="36" fill="white"/>
</clipPath>
</defs>
</svg>
