<svg width="64" height="38" viewBox="0 0 64 38" fill="none" xmlns="http://www.w3.org/2000/svg">
<path d="M18.0736 16.2018C18.8612 16.2018 19.6791 16.3684 20.5272 16.7016C21.3754 17.0349 22.1933 17.4741 22.9808 18.0193H22.9354C23.723 18.5646 24.3288 19.3067 24.7529 20.2458C25.177 21.1848 25.389 22.2602 25.389 23.4718V29.6967C25.389 32.1504 24.5712 33.983 22.9354 35.1947C22.1478 35.7702 21.33 36.2246 20.4818 36.5578C19.6639 36.8607 18.8612 37.0122 18.0736 37.0122H8.16825C7.38067 37.0122 6.5628 36.8607 5.71463 36.5578C4.89676 36.2246 4.09403 35.7702 3.30645 35.1947C1.6707 33.983 0.852827 32.1504 0.852827 29.6967V26.6979C0.852827 25.2742 1.74643 24.5623 3.53363 24.5623C5.35113 24.5623 6.25988 25.2742 6.25988 26.6979V29.3332C6.25988 30.1208 6.48707 30.8327 6.94144 31.4688C7.39581 32.1049 8.1834 32.423 9.30419 32.423H16.9377C18.0585 32.423 18.846 32.1049 19.3004 31.4688C19.7548 30.8327 19.982 30.1208 19.982 29.3332V23.8353C19.982 23.078 19.7548 22.3813 19.3004 21.7452C18.846 21.0788 18.0585 20.7456 16.9377 20.7456H8.16825C6.59309 20.7456 4.97249 20.17 3.30645 19.019C1.6707 17.7467 0.852827 15.9141 0.852827 13.521V8.11398C0.852827 6.90231 1.06487 5.84211 1.48895 4.93336C1.91303 3.99432 2.51887 3.23703 3.30645 2.66149H3.26101C4.04859 2.14653 4.86647 1.72245 5.71463 1.38924C6.5628 1.05603 7.38067 0.889428 8.16825 0.889428H18.0736C18.8612 0.889428 19.6791 1.05603 20.5272 1.38924C21.3754 1.72245 22.1933 2.14653 22.9808 2.66149H22.9354C23.723 3.23703 24.3288 3.99432 24.7529 4.93336C25.177 5.84211 25.389 6.90231 25.389 8.11398V10.7948C25.389 12.2185 24.4803 12.9303 22.6628 12.9303C20.8756 12.9303 19.982 12.2185 19.982 10.7948V8.52291C19.982 7.76562 19.7548 7.06892 19.3004 6.43279C18.846 5.79667 18.0585 5.47861 16.9377 5.47861H9.30419C8.1834 5.47861 7.39581 5.79667 6.94144 6.43279C6.48707 7.06892 6.25988 7.76562 6.25988 8.52291V13.1575C6.25988 13.9451 6.48707 14.657 6.94144 15.2931C7.39581 15.8989 8.1834 16.2018 9.30419 16.2018H18.0736ZM52.6181 35.1492C52.6181 36.6032 51.7245 37.3302 49.9373 37.3302C48.1501 37.3302 47.2565 36.6032 47.2565 35.1492V23.0629L37.0785 3.70655C36.8968 3.31276 36.8059 2.90382 36.8059 2.47974C36.8059 1.60128 37.3208 0.950011 38.3508 0.525928H38.3053C38.9717 0.283595 39.5018 0.162428 39.8956 0.162428C40.6832 0.162428 41.289 0.55622 41.7131 1.3438L49.9827 16.8834C50.5886 15.7323 51.2398 14.5055 51.9365 13.203C52.6333 11.8701 53.33 10.5222 54.0267 9.15904C54.7537 7.79591 55.4655 6.44794 56.1622 5.11511C56.8589 3.78228 57.5253 2.52517 58.1615 1.3438C58.4038 0.980302 58.6613 0.692532 58.9339 0.480492C59.2368 0.268449 59.6003 0.162428 60.0244 0.162428C60.4485 0.162428 60.9483 0.283595 61.5238 0.525928H61.4784C62.5386 0.980302 63.0687 1.64672 63.0687 2.52518C63.0687 2.70692 63.0536 2.90382 63.0233 3.11586C62.993 3.29761 62.9173 3.49451 62.7961 3.70655C62.5235 4.2518 62.1751 4.91821 61.751 5.70579C61.3572 6.49337 60.7817 7.59902 60.0244 9.02273C59.2974 10.4161 58.3432 12.2488 57.1619 14.5207C55.9805 16.7622 54.4659 19.6551 52.6181 23.1992V35.1492Z" fill="white"/>
</svg>
